<?xml version="1.0" standalone="no"?><!DOCTYPE svg PUBLIC "-//W3C//DTD SVG 1.1//EN" "http://www.w3.org/Graphics/SVG/1.1/DTD/svg11.dtd"><svg t="1619931664475" class="icon" viewBox="0 0 1024 1024" version="1.1" xmlns="http://www.w3.org/2000/svg" p-id="4313" xmlns:xlink="http://www.w3.org/1999/xlink" width="200" height="200"><defs><style type="text/css"></style></defs><path d="M946.07 179a92 92 0 0 0-77.64-43.91H729.17V95.38c0-15.79-13.88-30.91-30.18-30.18s-30.18 13.26-30.18 30.18v39.69H355.1V95.38c0-15.79-13.88-30.91-30.18-30.18s-30.19 13.26-30.19 30.18v39.69h-134.4c-2.52 0-5.05 0-7.57 0.07-32 1.46-63.47 19.64-77.66 49A98.55 98.55 0 0 0 65 227.59V867c0 17.27 4.43 35 14 49.59 17.07 26 45.37 42 76.61 42.25 7.15 0.06 14.31 0 21.47 0h692.86c31.83-0.89 62.5-18.35 77.76-46.72a95.44 95.44 0 0 0 11.3-45.66V238.29c0-20.73-1.68-40.88-12.93-59.29z m-59.21 22.46a10.68 10.68 0 0 1-1.42-1.11c0.09-0.09 0.69 0.42 1.42 1.09z m-752.64 2.84c1-1 2.13-1.9 3.17-2.87a59.43 59.43 0 0 1 6.37-3.68 62.67 62.67 0 0 1 7.73-2.12c7.12-0.51 14.39-0.17 21.47-0.17h121.77v40.8c0 15.78 13.89 30.91 30.19 30.18s30.18-13.26 30.18-30.18v-40.8h313.71v40.8c0 15.78 13.88 30.91 30.18 30.18s30.18-13.26 30.18-30.18v-40.8h138.56c1.6 0 3.18 0.06 4.77 0.16a65.52 65.52 0 0 1 7.76 2.13 61.86 61.86 0 0 1 6 3.44c0.37 0.25 0.74 0.5 1.1 0.76 1.11 1 2.29 2.24 2.4 2.35 1 1 1.91 2.13 2.88 3.17a63 63 0 0 1 3.68 6.37 65.36 65.36 0 0 1 2.11 7.7c0.45 6.53 0.18 13.17 0.18 19.68v98.16H142.27c-5.63 0-11.26 0-16.89-0.06v-36.8c0-25.43-0.17-50.87 0-76.3 0-1.56 0.06-3.11 0.16-4.66a64.84 64.84 0 0 1 2.13-7.75 60.7 60.7 0 0 1 3.44-6c0.25-0.38 0.5-0.74 0.76-1.11 1.04-1.12 2.24-2.31 2.35-2.42z m-2.85 2.93a10.19 10.19 0 0 1-1.1 1.42c-0.07-0.11 0.44-0.71 1.1-1.44z m5.78 685.22a10.68 10.68 0 0 1 1.42 1.11c-0.1 0.05-0.69-0.46-1.42-1.13z m582.27 6H156.29c-1.59 0-3.18-0.06-4.76-0.16a64.48 64.48 0 0 1-7.76-2.13 60.7 60.7 0 0 1-6-3.44c-0.38-0.25-0.74-0.5-1.11-0.76-1.1-1.05-2.29-2.24-2.4-2.35-1-1-1.9-2.13-2.87-3.17a59.43 59.43 0 0 1-3.68-6.37 63.52 63.52 0 0 1-2.12-7.7c-0.45-6.53-0.17-13.18-0.17-19.68V399.72h756.04c5.72 0 11.45 0 17.17 0.06v391.57c0 25.43 0.17 50.87 0 76.3 0 1.56-0.07 3.11-0.17 4.66a64.84 64.84 0 0 1-2.13 7.75 57 57 0 0 1-3.44 6c-0.24 0.38-0.5 0.74-0.75 1.11-1 1.1-2.24 2.29-2.36 2.4-1 1-2.13 1.9-3.16 2.87a59.43 59.43 0 0 1-6.37 3.68 65.62 65.62 0 0 1-7.8 2.13c-1.33 0.09-2.66 0.15-4 0.16h-149z m173.21-11.77a9.79 9.79 0 0 1 1.11-1.42c0.06 0.07-0.44 0.67-1.11 1.4z" p-id="4314"></path><path d="M749 494.13c-11.72-10.75-31.17-12.32-42.69 0q-12.5 13.38-25 26.75l-59.69 63.84q-36.09 38.6-72.19 77.2L486.7 729c-3.68 3.93-7.41 7.83-11.13 11.74L445 712.34l-85.43-79.24L340 614.89c-11.58-10.74-31.38-12.31-42.68 0-10.73 11.68-12.37 31.22 0 42.69l53.55 49.71 85.38 79.24 19.62 18.2c11.64 10.81 31.2 12.28 42.68 0l25-26.74 59.69-63.84 72.19-77.21 62.74-67.1c10.14-10.84 20.45-21.54 30.43-32.54 0.14-0.16 0.3-0.32 0.45-0.48 10.74-11.54 12.24-31.41-0.05-42.69z" p-id="4315"></path></svg>