<svg t="1618821775346" class="icon" viewBox="0 0 1024 1024" version="1.1" xmlns="http://www.w3.org/2000/svg" p-id="2560" width="200" height="200"><path d="M539.3 347.1h186.2c1.4 0 2.5-2.3 2.5-5.4v-46.5c0-3-1.2-5.4-2.6-5.4H539.3c-1.4 0-2.6 2.4-2.6 5.4v46.5c0 2.9 1.2 5.4 2.6 5.4zM758 347.3h49.5c1.4 0 2.6-2.4 2.6-5.4v-46.5c0-3-1.2-5.4-2.6-5.4H758c-1.4 0-2.6 2.4-2.6 5.4V342c0 2.9 1.1 5.3 2.6 5.3zM536.7 450.9c0 3 1.2 5.4 2.6 5.4h186.2c1.4 0 2.5-2.3 2.5-5.4v-46.5c0-3-1.2-5.4-2.6-5.4H539.3c-1.4 0-2.6 2.4-2.6 5.4v46.5zM755.4 451.2c0 3 1.2 5.4 2.6 5.4h49.5c1.4 0 2.6-2.4 2.6-5.4v-46.5c0-3-1.2-5.4-2.6-5.4H758c-1.4 0-2.6 2.4-2.6 5.4v46.5zM536.7 559.3c0 3 1.2 5.4 2.6 5.4h186.2c1.4 0 2.5-2.3 2.5-5.4v-46.5c0-3-1.2-5.4-2.6-5.4H539.3c-1.4 0-2.6 2.4-2.6 5.4v46.5zM755.4 559.6c0 3 1.2 5.4 2.6 5.4h49.5c1.4 0 2.6-2.4 2.6-5.4v-46.5c0-3-1.2-5.4-2.6-5.4H758c-1.4 0-2.6 2.4-2.6 5.4v46.5zM314.3 573c73.9 0 134-60.1 134-134s-60.1-134-134-134-134 60.1-134 134c0 73.8 60.1 134 134 134z m0-209.5c41.6 0 75.5 33.9 75.5 75.5s-33.9 75.5-75.5 75.5-75.5-33.9-75.5-75.5c0-41.7 33.9-75.5 75.5-75.5zM422.4 598.5H208.8c-78.3 0-142 63.7-142 142v162.1h55.9V740.5c0-47.5 38.6-86.1 86.1-86.1h76.8l5.7 6.1-16.3 93.7 39.1 39.9 42-39.5-17.5-94.1 8.2-6.1h75.6c47.5 0 86.1 38.6 86.1 86.1v162.1h55.9V740.5c0-78.3-63.7-142-142-142z" p-id="2561"></path><path d="M124.1 118.2v149.4h64.4v-87.9h706.1v600.5H692.8v61.5h266.3V118.2z" p-id="2562"></path></svg>
